name pl10_filtered_grf.mot
datacolumns 37
datarows 10
range 1.246000 1.250500
endheader
time	1_ground_force_vx	1_ground_force_vy	1_ground_force_vz	1_ground_force_px	1_ground_force_py	1_ground_force_pz	1_ground_torque_x	1_ground_torque_y	1_ground_torque_z	2_ground_force_vx	2_ground_force_vy	2_ground_force_vz	2_ground_force_px	2_ground_force_py	2_ground_force_pz	2_ground_torque_x	2_ground_torque_y	2_ground_torque_z	3_ground_force_vx	3_ground_force_vy	3_ground_force_vz	3_ground_force_px	3_ground_force_py	3_ground_force_pz	3_ground_torque_x	3_ground_torque_y	3_ground_torque_z	4_ground_force_vx	4_ground_force_vy	4_ground_force_vz	4_ground_force_px	4_ground_force_py	4_ground_force_pz	4_ground_torque_x	4_ground_torque_y	4_ground_torque_z
            1.246000	          -44.772512	          485.177312	           29.683505	            0.162771	            0.000000	            0.181221	           -0.970316	           10.514824	            0.643305	           26.274789	          304.570298	          -27.293439	           -0.189173	            0.000000	            0.231130	            0.070624	            0.818649	           -0.073362	            0.565061	           -0.319081	           -0.425085	            0.413424	            1.262747	            1.873260	            0.028903	            0.017020	            0.006346	           -2.067056	           -1.699587	           -2.123178	           -0.353179	            1.255785	            1.900458	            0.035777	           -0.037173	            0.051206
            1.246500	          -44.728953	          484.764271	           29.648546	            0.162770	            0.000000	            0.181213	           -0.969951	           10.512154	            0.642931	           26.405885	          304.634162	          -27.189455	           -0.189182	            0.000000	            0.231103	            0.073894	            0.852482	           -0.076086	            0.584533	           -0.318661	           -0.421116	            0.413426	            1.262746	            1.873251	            0.028853	            0.017150	            0.006243	           -2.070912	           -1.700536	           -2.115878	           -0.353179	            1.255781	            1.900453	            0.035832	           -0.036880	            0.051339
            1.247000	          -44.687270	          484.351291	           29.619802	            0.162767	            0.000000	            0.181203	           -0.969632	           10.509534	            0.642695	           26.533923	          304.701535	          -27.081035	           -0.189187	            0.000000	            0.231072	            0.077188	            0.886391	           -0.078780	            0.603239	           -0.318881	           -0.417542	            0.413428	            1.262744	            1.873242	            0.028814	            0.017285	            0.006156	           -2.075060	           -1.701751	           -2.108288	           -0.353179	            1.255776	            1.900447	            0.035881	           -0.036594	            0.051466
            1.247500	          -44.647314	          483.938359	           29.597376	            0.162764	            0.000000	            0.181191	           -0.969355	           10.506977	            0.642600	           26.658729	          304.772038	          -26.968130	           -0.189190	            0.000000	            0.231036	            0.080505	            0.920358	           -0.081439	            0.621114	           -0.319753	           -0.414372	            0.413430	            1.262742	            1.873233	            0.028786	            0.017425	            0.006085	           -2.079491	           -1.703219	           -2.100397	           -0.353178	            1.255772	            1.900442	            0.035922	           -0.036317	            0.051586
            1.248000	          -44.608935	          483.525460	           29.581368	            0.162759	            0.000000	            0.181176	           -0.969120	           10.504497	            0.642650	           26.780130	          304.845284	          -26.850694	           -0.189190	            0.000000	            0.230997	            0.083839	            0.954362	           -0.084060	            0.638096	           -0.321286	           -0.411618	            0.413432	            1.262740	            1.873225	            0.028769	            0.017571	            0.006028	           -2.084177	           -1.704929	           -2.092213	           -0.353177	            1.255768	            1.900437	            0.035956	           -0.036053	            0.051699
            1.248500	          -44.571984	          483.112583	           29.571868	            0.162752	            0.000000	            0.181160	           -0.968925	           10.502109	            0.642846	           26.897959	          304.920882	          -26.728680	           -0.189188	            0.000000	            0.230952	            0.087188	            0.988386	           -0.086640	            0.654129	           -0.323484	           -0.409287	            0.413435	            1.262739	            1.873217	            0.028763	            0.017724	            0.005988	           -2.089127	           -1.706869	           -2.083712	           -0.353177	            1.255764	            1.900432	            0.035981	           -0.035802	            0.051804
            1.249000	          -44.536311	          482.699715	           29.568962	            0.162744	            0.000000	            0.181141	           -0.968767	           10.499824	            0.643193	           27.012054	          304.998438	          -26.602046	           -0.189183	            0.000000	            0.230904	            0.090549	            1.022412	           -0.089175	            0.669159	           -0.326348	           -0.407390	            0.413437	            1.262737	            1.873209	            0.028769	            0.017883	            0.005962	           -2.094328	           -1.709025	           -2.074887	           -0.353176	            1.255760	            1.900427	            0.035998	           -0.035566	            0.051900
            1.249500	          -44.501767	          482.286846	           29.572724	            0.162735	            0.000000	            0.181119	           -0.968644	           10.497657	            0.643692	           27.122258	          305.077553	          -26.470750	           -0.189175	            0.000000	            0.230850	            0.093919	            1.056423	           -0.091663	            0.683139	           -0.329872	           -0.405937	            0.413440	            1.262736	            1.873200	            0.028787	            0.018050	            0.005952	           -2.099770	           -1.711384	           -2.065734	           -0.353176	            1.255756	            1.900422	            0.036006	           -0.035347	            0.051987
            1.250000	          -44.468203	          481.873966	           29.583224	            0.162724	            0.000000	            0.181096	           -0.968555	           10.495620	            0.644347	           27.228423	          305.157827	          -26.334751	           -0.189164	            0.000000	            0.230793	            0.097294	            1.090401	           -0.094100	            0.696022	           -0.334051	           -0.404940	            0.413442	            1.262735	            1.873192	            0.028817	            0.018224	            0.005957	           -2.105439	           -1.713933	           -2.056252	           -0.353175	            1.255752	            1.900417	            0.036005	           -0.035147	            0.052063
            1.250500	          -44.435474	          481.461067	           29.600524	            0.162712	            0.000000	            0.181070	           -0.968497	           10.493723	            0.645161	           27.330405	          305.238859	          -26.194011	           -0.189151	            0.000000	            0.230730	            0.100670	            1.124333	           -0.096484	            0.707768	           -0.338872	           -0.404414	            0.413445	            1.262734	            1.873185	            0.028861	            0.018406	            0.005976	           -2.111311	           -1.716657	           -2.046451	           -0.353174	            1.255749	            1.900413	            0.035995	           -0.034966	            0.052130
